<svg xmlns="http://www.w3.org/2000/svg" width="100" height="100" viewbox="0 0 100 100">
<g stroke="black" stroke-width="2" fill="white">
    <path d="
    M 20 70
    c 5 30, 55 30, 60 0
    v -20
    q 0 -5, -5 -5
    h -50
    q -5 0, -5 5
    z
    " />
    <path fill="#333" d="
    M 20 37
    q 0 5, 5 5
    h 18
    q 5 0, 5 -5
    v -25
    q 0 -5, -5 -5
    h -0
    q -23 0, -23 23
    z
    "/>
    <path d="
    M 80 37
    q 0 5, -5 5
    h -18
    q -5 0, -5 -5
    v -25
    q 0 -5, 5 -5
    h 0
    q 23 0, 23 23
    z
    "/>
    <rect x="44" y="15" width="12" height="23" rx="6"/>
</g>
</svg>